<svg xmlns="http://www.w3.org/2000/svg" width="32" height="25.503" viewBox="0 0 32 25.503">
  <path id="bootstrap" d="M25.591,41.646c0-1.258-.888-1.953-2.448-1.953h-2.87v4.054h2.42C24.56,43.741,25.591,42.989,25.591,41.646Zm10.448-.729a17.862,17.862,0,0,1-.558-5.586A3.185,3.185,0,0,0,32.367,32H13.645a3.185,3.185,0,0,0-3.115,3.331,18.032,18.032,0,0,1-.558,5.586C9.426,42.682,8.509,43.8,7,43.94v1.623c1.5.142,2.426,1.258,2.972,3.023a17.862,17.862,0,0,1,.558,5.586A3.185,3.185,0,0,0,13.645,57.5H32.361a3.185,3.185,0,0,0,3.115-3.331,18.032,18.032,0,0,1,.558-5.586C36.58,46.821,37.5,45.705,39,45.563V43.94C37.5,43.8,36.58,42.682,36.039,40.917ZM23.695,51.536H18.12V37.967h5.546c2.465,0,4.083,1.332,4.083,3.382A3.023,3.023,0,0,1,25.272,44.3v.074a3.3,3.3,0,0,1,3.16,3.32C28.432,50.09,26.65,51.536,23.695,51.536Zm-.569-6.189H20.273v4.464h2.978c1.947,0,2.978-.78,2.978-2.249S25.169,45.347,23.125,45.347Z" transform="translate(-7 -32)" fill="#95995c"/>
</svg>
