<svg xmlns="http://www.w3.org/2000/svg" xmlns:xlink="http://www.w3.org/1999/xlink" width="653.803" height="328" viewBox="0 0 653.803 328">
  <defs>
    <filter id="cercle" x="0" y="0" width="653.803" height="328" filterUnits="userSpaceOnUse">
      <feOffset dx="-6" dy="-2" input="SourceAlpha"/>
      <feGaussianBlur stdDeviation="3" result="blur"/>
      <feFlood flood-opacity="0.239"/>
      <feComposite operator="in" in2="blur"/>
      <feComposite in="SourceGraphic"/>
    </filter>
  </defs>
  <g transform="matrix(1, 0, 0, 1, 0, 0)" filter="url(#cercle)">
    <g id="cercle-2" data-name="cercle" transform="translate(59.9 753.73)" fill="#0d1f22" stroke-dasharray="1 40">
      <path d="M590.9-432.731H-44.9a319.451,319.451,0,0,1,7.788-62.681A316.448,316.448,0,0,1-17.755-553.7a318.307,318.307,0,0,1,29.708-52.67A320.429,320.429,0,0,1,50.79-652.2a320.249,320.249,0,0,1,46.744-37.774,317.943,317.943,0,0,1,53.43-28.494,316.414,316.414,0,0,1,58.9-17.992A320.4,320.4,0,0,1,273-742.731a320.4,320.4,0,0,1,63.14,6.269,316.417,316.417,0,0,1,58.9,17.992,317.948,317.948,0,0,1,53.431,28.494A320.245,320.245,0,0,1,495.211-652.2a320.436,320.436,0,0,1,38.837,45.833,318.3,318.3,0,0,1,29.708,52.67,316.451,316.451,0,0,1,19.358,58.286,319.454,319.454,0,0,1,7.788,62.681Z" stroke="none"/>
      <path d="M 590.9015502929688 -432.7307434082031 L 590.9015502929688 -432.7316589355469 L 589.9024658203125 -432.7316589355469 L 589.9024658203125 -436.7316589355469 L 590.7775268554688 -436.7316589355469 C 590.8272094726562 -435.3984985351562 590.8685913085938 -434.0653991699219 590.9015502929688 -432.7317504882812 L 590.9015502929688 -432.7307434082031 Z M 549.9024658203125 -432.7316589355469 L 548.9024658203125 -432.7316589355469 L 548.9024658203125 -436.7316589355469 L 549.9024658203125 -436.7316589355469 L 549.9024658203125 -432.7316589355469 Z M 508.9024963378906 -432.7316589355469 L 507.9024963378906 -432.7316589355469 L 507.9024963378906 -436.7316589355469 L 508.9024963378906 -436.7316589355469 L 508.9024963378906 -432.7316589355469 Z M 467.9024963378906 -432.7316589355469 L 466.9024963378906 -432.7316589355469 L 466.9024963378906 -436.7316589355469 L 467.9024963378906 -436.7316589355469 L 467.9024963378906 -432.7316589355469 Z M 426.9024963378906 -432.7316589355469 L 425.9024963378906 -432.7316589355469 L 425.9024963378906 -436.7316589355469 L 426.9024963378906 -436.7316589355469 L 426.9024963378906 -432.7316589355469 Z M 385.9024963378906 -432.7316589355469 L 384.9024963378906 -432.7316589355469 L 384.9024963378906 -436.7316589355469 L 385.9024963378906 -436.7316589355469 L 385.9024963378906 -432.7316589355469 Z M 344.9024963378906 -432.7316589355469 L 343.9024963378906 -432.7316589355469 L 343.9024963378906 -436.7316589355469 L 344.9024963378906 -436.7316589355469 L 344.9024963378906 -432.7316589355469 Z M 303.9024963378906 -432.7316589355469 L 302.9024963378906 -432.7316589355469 L 302.9024963378906 -436.7316589355469 L 303.9024963378906 -436.7316589355469 L 303.9024963378906 -432.7316589355469 Z M 262.9024963378906 -432.7316589355469 L 261.9024963378906 -432.7316589355469 L 261.9024963378906 -436.7316589355469 L 262.9024963378906 -436.7316589355469 L 262.9024963378906 -432.7316589355469 Z M 221.9024810791016 -432.7316589355469 L 220.9024810791016 -432.7316589355469 L 220.9024810791016 -436.7316589355469 L 221.9024810791016 -436.7316589355469 L 221.9024810791016 -432.7316589355469 Z M 180.9024810791016 -432.7316589355469 L 179.9024810791016 -432.7316589355469 L 179.9024810791016 -436.7316589355469 L 180.9024810791016 -436.7316589355469 L 180.9024810791016 -432.7316589355469 Z M 139.9024810791016 -432.7316589355469 L 138.9024810791016 -432.7316589355469 L 138.9024810791016 -436.7316589355469 L 139.9024810791016 -436.7316589355469 L 139.9024810791016 -432.7316589355469 Z M 98.90248870849609 -432.7316589355469 L 97.90248870849609 -432.7316589355469 L 97.90248870849609 -436.7316589355469 L 98.90248870849609 -436.7316589355469 L 98.90248870849609 -432.7316589355469 Z M 57.90248489379883 -432.7316589355469 L 56.90248489379883 -432.7316589355469 L 56.90248489379883 -436.7316589355469 L 57.90248489379883 -436.7316589355469 L 57.90248489379883 -432.7316589355469 Z M 16.90248680114746 -432.7316589355469 L 15.90248584747314 -432.7316589355469 L 15.90248584747314 -436.7316589355469 L 16.90248680114746 -436.7316589355469 L 16.90248680114746 -432.7316589355469 Z M -24.09751319885254 -432.7316589355469 L -25.09751319885254 -432.7316589355469 L -25.09751319885254 -436.7316589355469 L -24.09751319885254 -436.7316589355469 L -24.09751319885254 -432.7316589355469 Z M -39.78101348876953 -452.5421752929688 L -43.76559829711914 -452.8927307128906 C -43.76389694213867 -452.9120178222656 -43.76239395141602 -452.9290466308594 -43.76069259643555 -452.9483032226562 C -43.75143432617188 -453.0532531738281 -43.74213790893555 -453.1581726074219 -43.73279190063477 -453.2631225585938 C -43.71412658691406 -453.4724731445312 -43.69546508789062 -453.6795349121094 -43.6763916015625 -453.8888244628906 L -39.69293212890625 -453.5258178710938 C -39.72276306152344 -453.197998046875 -39.75209808349609 -452.8700866699219 -39.78101348876953 -452.5421752929688 Z M -33.65859603881836 -492.5333251953125 L -37.56509780883789 -493.3930053710938 C -37.56399536132812 -493.3980102539062 -37.56294250488281 -493.4027709960938 -37.56184005737305 -493.4077758789062 C -37.49124526977539 -493.7284240722656 -37.420166015625 -494.0489196777344 -37.34859848022461 -494.3692321777344 L -33.44484710693359 -493.4970703125 C -33.51659774780273 -493.1759948730469 -33.58784866333008 -492.854736328125 -33.65859603881836 -492.5333251953125 Z M -22.41351318359375 -531.3909912109375 L -26.17584800720215 -532.749267578125 C -26.15371704101562 -532.8104858398438 -26.13253211975098 -532.8690795898438 -26.11038208007812 -532.9303588867188 C -26.01919555664062 -533.182373046875 -25.9277458190918 -533.4342651367188 -25.83595657348633 -533.68603515625 C -25.83595657348633 -533.68603515625 -25.83476257324219 -533.6893310546875 -25.83476257324219 -533.6893310546875 L -22.07676315307617 -532.3192749023438 C -22.18943023681641 -532.010009765625 -22.30168151855469 -531.7005615234375 -22.41351318359375 -531.3909912109375 Z M -6.235930919647217 -568.4671630859375 L -9.790596961975098 -570.3013916015625 C -9.637485504150391 -570.59814453125 -9.484696388244629 -570.89306640625 -9.330641746520996 -571.1893310546875 L -5.781764030456543 -569.3438110351562 C -5.933680534362793 -569.0518188476562 -6.085013866424561 -568.7595825195312 -6.235930919647217 -568.4671630859375 Z M 14.58923625946045 -603.1528930664062 L 11.29956912994385 -605.428466796875 C 11.46920490264893 -605.6736450195312 11.63966846466064 -605.9193725585938 11.80995559692383 -606.1640625 C 11.82987403869629 -606.1926879882812 11.8498067855835 -606.2213134765625 11.86973571777344 -606.2499389648438 L 15.15215301513672 -603.9639892578125 C 14.96406936645508 -603.6939086914062 14.77648639678955 -603.423583984375 14.58923625946045 -603.1528930664062 Z M 39.69715118408203 -634.8790893554688 L 36.72557067871094 -637.5567626953125 C 36.84857940673828 -637.6932373046875 36.9732551574707 -637.8313598632812 37.09648895263672 -637.9676513671875 C 37.10290145874023 -637.9747314453125 37.10931015014648 -637.9818115234375 37.11572647094727 -637.9889526367188 C 37.13298034667969 -638.0079956054688 37.15032958984375 -638.0271606445312 37.1675910949707 -638.0462646484375 C 37.18162155151367 -638.061767578125 37.19566345214844 -638.0772705078125 37.20969772338867 -638.0927734375 C 37.21956253051758 -638.1036987304688 37.22881317138672 -638.1138916015625 37.23867797851562 -638.1248168945312 C 37.29114151000977 -638.1827392578125 37.34364318847656 -638.2406616210938 37.39615249633789 -638.298583984375 L 40.35940170288086 -635.6117553710938 C 40.13823699951172 -635.3678588867188 39.91748428344727 -635.1236572265625 39.69715118408203 -634.8790893554688 Z M 68.65290069580078 -663.13623046875 L 66.04865264892578 -666.1723022460938 C 66.30168914794922 -666.3893432617188 66.55495452880859 -666.6058959960938 66.80866241455078 -666.8221435546875 L 69.40348815917969 -663.7780151367188 C 69.15298461914062 -663.5645141601562 68.90281677246094 -663.3505859375 68.65290069580078 -663.13623046875 Z M 100.9835662841797 -687.4600219726562 L 98.78940582275391 -690.8045043945312 C 98.79043579101562 -690.80517578125 98.79006958007812 -690.804931640625 98.79110717773438 -690.8056030273438 C 98.81962585449219 -690.8243408203125 98.84812927246094 -690.843017578125 98.87665557861328 -690.8616943359375 C 98.88491058349609 -690.8671264648438 98.89312744140625 -690.8724975585938 98.90138244628906 -690.8779296875 C 98.92229461669922 -690.8916625976562 98.94319915771484 -690.9053344726562 98.964111328125 -690.9190063476562 C 98.97959136962891 -690.92919921875 98.99459075927734 -690.9390258789062 99.01007843017578 -690.9491577148438 C 99.0225830078125 -690.9573364257812 99.03509521484375 -690.9655151367188 99.047607421875 -690.9736938476562 C 99.06928253173828 -690.9879150390625 99.09293365478516 -691.00341796875 99.11460876464844 -691.017578125 C 99.11825561523438 -691.0199584960938 99.12185668945312 -691.0223388671875 99.12549591064453 -691.0247192382812 C 99.29275512695312 -691.1340942382812 99.45893859863281 -691.2426147460938 99.62641143798828 -691.3517456054688 L 101.8099822998047 -688.0003051757812 C 101.5342330932617 -687.8206787109375 101.2587356567383 -687.6405639648438 100.9835662841797 -687.4600219726562 Z M 136.1704864501953 -707.4254760742188 L 134.4244842529297 -711.0242309570312 C 134.4906921386719 -711.056396484375 134.5569152832031 -711.0885009765625 134.6231536865234 -711.12060546875 C 134.6387023925781 -711.1281127929688 134.6566009521484 -711.1367797851562 134.6721496582031 -711.144287109375 C 134.6769104003906 -711.1466064453125 134.6817016601562 -711.14892578125 134.6864776611328 -711.1512451171875 C 134.8341522216797 -711.2227172851562 134.9832611083984 -711.2947387695312 135.1310424804688 -711.365966796875 C 135.1956787109375 -711.3971557617188 135.2603302001953 -711.4282836914062 135.3249816894531 -711.4594116210938 L 137.0596466064453 -707.8551025390625 C 136.7630767822266 -707.71240234375 136.4666595458984 -707.5691528320312 136.1704864501953 -707.4254760742188 Z M 173.6351470947266 -722.680419921875 L 172.3705749511719 -726.4752197265625 C 172.3777160644531 -726.4776000976562 172.3842620849609 -726.4797973632812 172.3914184570312 -726.482177734375 C 172.7007141113281 -726.585205078125 173.0101013183594 -726.6878051757812 173.3197326660156 -726.7898559570312 L 174.5723266601562 -722.9910888671875 C 174.2597351074219 -722.8880004882812 173.9473266601562 -722.784423828125 173.6351470947266 -722.680419921875 Z M 212.7597351074219 -732.9589233398438 L 211.9970703125 -736.885498046875 C 212.0316619873047 -736.8922119140625 212.0662689208984 -736.89892578125 212.1008605957031 -736.9056396484375 C 212.1109619140625 -736.9075927734375 212.1219635009766 -736.9097290039062 212.132080078125 -736.9116821289062 C 212.1617736816406 -736.9174194335938 212.1914978027344 -736.9232177734375 212.22119140625 -736.928955078125 C 212.2313079833984 -736.930908203125 212.2415618896484 -736.932861328125 212.2516632080078 -736.934814453125 C 212.4859771728516 -736.9801635742188 212.7203369140625 -737.025146484375 212.9548187255859 -737.0700073242188 C 212.96240234375 -737.0714111328125 212.9717407226562 -737.0731811523438 212.9793243408203 -737.0746459960938 L 213.7294921875 -733.1456909179688 C 213.4060668945312 -733.0839233398438 213.0828247070312 -733.0216674804688 212.7597351074219 -732.9589233398438 Z M 252.8909912109375 -738.0944213867188 L 252.6379089355469 -742.08642578125 C 252.9417724609375 -742.1056518554688 253.2456359863281 -742.1244506835938 253.5495910644531 -742.1428833007812 C 253.5783843994141 -742.1445922851562 253.6071929931641 -742.1463623046875 253.635986328125 -742.1480712890625 L 253.8765716552734 -738.1553344726562 C 253.5479888916016 -738.135498046875 253.219482421875 -738.115234375 252.8909912109375 -738.0944213867188 Z M 294.3399047851562 -738.0139770507812 C 294.011474609375 -738.0360717773438 293.6829833984375 -738.0576782226562 293.3544006347656 -738.0787353515625 L 293.6104736328125 -742.0704956054688 C 293.7720336914062 -742.0601196289062 293.9335632324219 -742.0496826171875 294.0950927734375 -742.0390625 C 294.1015625 -742.0386352539062 294.1098022460938 -742.0380859375 294.1162414550781 -742.0376586914062 C 294.1474304199219 -742.03564453125 294.1785583496094 -742.0335693359375 294.209716796875 -742.031494140625 C 294.2213745117188 -742.03076171875 294.2314758300781 -742.0300903320312 294.2431335449219 -742.029296875 C 294.2815856933594 -742.0267333984375 294.3200378417969 -742.0242309570312 294.3584899902344 -742.0216674804688 C 294.3584899902344 -742.0216674804688 294.3590698242188 -742.0216064453125 294.3590698242188 -742.0216064453125 C 294.4421691894531 -742.0160522460938 294.5252990722656 -742.010498046875 294.6083984375 -742.0048828125 L 294.3399047851562 -738.0139770507812 Z M 334.4500732421875 -732.7213134765625 C 334.1274108886719 -732.7853393554688 333.8044738769531 -732.8488159179688 333.4814758300781 -732.9118041992188 L 334.2472229003906 -736.837890625 C 334.4732055664062 -736.7938232421875 334.6997985839844 -736.7493286132812 334.9256286621094 -736.7047729492188 C 334.9296569824219 -736.7039794921875 334.9336853027344 -736.7031860351562 334.9377136230469 -736.702392578125 C 334.9591674804688 -736.6981811523438 334.9795837402344 -736.694091796875 335.0010070800781 -736.6898803710938 C 335.0768127441406 -736.6748657226562 335.1526184082031 -736.6598510742188 335.2283935546875 -736.6448364257812 L 334.4500732421875 -732.7213134765625 Z M 373.5340576171875 -722.2881469726562 C 373.2222290039062 -722.3934326171875 372.9102478027344 -722.4982299804688 372.5979919433594 -722.6026000976562 L 373.8655700683594 -726.3964233398438 C 374.1596984863281 -726.298095703125 374.4541015625 -726.1992797851562 374.7479553222656 -726.1001586914062 C 374.7517395019531 -726.098876953125 374.7555541992188 -726.0975952148438 374.7593383789062 -726.0963134765625 C 374.7783813476562 -726.0899047851562 374.7945251464844 -726.0844116210938 374.8135681152344 -726.0780029296875 L 373.5340576171875 -722.2881469726562 Z M 410.9378051757812 -706.885009765625 C 410.642333984375 -707.0298461914062 410.3465576171875 -707.1741333007812 410.0505676269531 -707.3180541992188 L 411.7994079589844 -710.9154663085938 C 411.8270263671875 -710.902099609375 411.8546447753906 -710.888671875 411.8822631835938 -710.8751831054688 C 411.9088745117188 -710.8622436523438 411.9343566894531 -710.849853515625 411.9609680175781 -710.8369140625 C 411.9616088867188 -710.8366088867188 411.9622192382812 -710.8363037109375 411.9628295898438 -710.8359985351562 C 412.03271484375 -710.802001953125 412.1012573242188 -710.7685546875 412.1711120605469 -710.7344970703125 C 412.17724609375 -710.7315063476562 412.1833801269531 -710.728515625 412.1894836425781 -710.7255249023438 C 412.2138977050781 -710.713623046875 412.2379455566406 -710.701904296875 412.2623596191406 -710.6900024414062 C 412.4075927734375 -710.6190795898438 412.5528259277344 -710.5480346679688 412.697998046875 -710.4769287109375 L 410.9378051757812 -706.885009765625 Z M 446.0460815429688 -686.7816772460938 C 445.7716674804688 -686.9632568359375 445.4969177246094 -687.1444091796875 445.2218933105469 -687.3251342773438 L 447.4187316894531 -690.6679077148438 C 447.6973266601562 -690.4848022460938 447.9755554199219 -690.3013305664062 448.2534790039062 -690.117431640625 L 446.0460815429688 -686.7816772460938 Z M 478.28173828125 -662.3316040039062 C 478.0327453613281 -662.5468139648438 477.7834167480469 -662.76171875 477.5336608886719 -662.9762573242188 L 480.1403198242188 -666.0103149414062 C 480.1895751953125 -665.968017578125 480.2387084960938 -665.9257202148438 480.2879638671875 -665.8833618164062 C 480.2974548339844 -665.875244140625 480.3069763183594 -665.8670654296875 480.3164672851562 -665.85888671875 C 480.3322448730469 -665.8452758789062 480.3465881347656 -665.8329467773438 480.3623962402344 -665.8193359375 C 480.3787231445312 -665.8052978515625 480.3950805664062 -665.7911987304688 480.4114379882812 -665.7771606445312 C 480.4253540039062 -665.76513671875 480.4399719238281 -665.7525634765625 480.4539184570312 -665.7405395507812 C 480.4694213867188 -665.7271728515625 480.4848937988281 -665.7138671875 480.5003967285156 -665.7005004882812 C 480.5198974609375 -665.6837158203125 480.5394592285156 -665.6668090820312 480.5589599609375 -665.6500244140625 C 480.567138671875 -665.6430053710938 480.5752868652344 -665.6359252929688 480.5834655761719 -665.62890625 C 480.6883544921875 -665.5384521484375 480.7930297851562 -665.4480590820312 480.8977966308594 -665.3574829101562 L 478.28173828125 -662.3316040039062 Z M 507.1268310546875 -633.96142578125 C 506.9074096679688 -634.2068481445312 506.6875610351562 -634.4518432617188 506.4674072265625 -634.6965942382812 L 509.4410705566406 -637.3718872070312 C 509.44189453125 -637.3709716796875 509.4420776367188 -637.3707885742188 509.4429016113281 -637.369873046875 C 509.6651916503906 -637.1227416992188 509.8871765136719 -636.875244140625 510.1087341308594 -636.62744140625 L 507.1268310546875 -633.96142578125 Z M 532.1104736328125 -602.1375732421875 C 531.92431640625 -602.4089965820312 531.7376708984375 -602.6800537109375 531.5506591796875 -602.950927734375 L 534.842041015625 -605.2239379882812 C 534.9495239257812 -605.0682983398438 535.056884765625 -604.91259765625 535.1640625 -604.7567749023438 C 535.2457885742188 -604.6380004882812 535.3275146484375 -604.51904296875 535.4090576171875 -604.400146484375 L 532.1104736328125 -602.1375732421875 Z M 552.799560546875 -567.3703002929688 C 552.6497192382812 -567.6633911132812 552.49951171875 -567.956298828125 552.3488159179688 -568.2489013671875 L 555.9049072265625 -570.0803833007812 C 555.931396484375 -570.0289306640625 555.9578857421875 -569.9773559570312 555.984375 -569.9259033203125 C 556.089111328125 -569.7222290039062 556.193603515625 -569.5184936523438 556.2979125976562 -569.3146362304688 C 556.3057861328125 -569.29931640625 556.3133544921875 -569.2844848632812 556.3212280273438 -569.2691040039062 C 556.3238525390625 -569.2640380859375 556.326416015625 -569.2589721679688 556.3290405273438 -569.25390625 C 556.3396606445312 -569.2330322265625 556.3507080078125 -569.21142578125 556.3613891601562 -569.1905517578125 L 552.799560546875 -567.3703002929688 Z M 568.8301391601562 -530.2305908203125 C 568.7195434570312 -530.5405883789062 568.6085815429688 -530.8504028320312 568.4970703125 -531.1600952148438 L 572.260498046875 -532.5153198242188 C 572.2999267578125 -532.40576171875 572.33984375 -532.2947387695312 572.379150390625 -532.1851196289062 C 572.3795776367188 -532.1838989257812 572.3800659179688 -532.1826782226562 572.3804931640625 -532.1815185546875 C 572.3884887695312 -532.1591186523438 572.3963623046875 -532.1371459960938 572.4044189453125 -532.11474609375 C 572.4119873046875 -532.0936889648438 572.4194946289062 -532.0726928710938 572.4270629882812 -532.0516357421875 C 572.430419921875 -532.042236328125 572.4332275390625 -532.0343017578125 572.4366455078125 -532.0248413085938 C 572.4475708007812 -531.9943237304688 572.4585571289062 -531.9637451171875 572.469482421875 -531.9331665039062 C 572.4728393554688 -531.9237670898438 572.4769897460938 -531.912109375 572.4803466796875 -531.9027099609375 C 572.4890747070312 -531.8782958984375 572.497802734375 -531.8539428710938 572.5065307617188 -531.82958984375 C 572.536865234375 -531.7446899414062 572.5675048828125 -531.658935546875 572.5977783203125 -531.573974609375 L 568.8301391601562 -530.2305908203125 Z M 579.9215087890625 -491.3285827636719 C 579.8519897460938 -491.6503295898438 579.7820434570312 -491.9719848632812 579.7115478515625 -492.2934875488281 L 583.6187133789062 -493.1500854492188 C 583.6513061523438 -493.0016784667969 583.6837158203125 -492.8532409667969 583.716064453125 -492.7047729492188 C 583.7479248046875 -492.5582885742188 583.7794799804688 -492.4128723144531 583.8111572265625 -492.2663269042969 C 583.8179321289062 -492.235107421875 583.8246459960938 -492.2038879394531 583.8314208984375 -492.1726684570312 L 579.9215087890625 -491.3285827636719 Z M 585.886962890625 -451.3136596679688 C 585.859375 -451.6416625976562 585.831298828125 -451.9695739746094 585.802734375 -452.2974853515625 L 589.7876586914062 -452.6449890136719 C 589.7984619140625 -452.5203857421875 589.8092651367188 -452.3956298828125 589.8200073242188 -452.27099609375 C 589.8378295898438 -452.0635986328125 589.85546875 -451.8561096191406 589.8729248046875 -451.6486511230469 L 585.886962890625 -451.3136596679688 Z" stroke="none" fill="#9e9c9a"/>
    </g>
  </g>
</svg>
