<svg id="database" xmlns="http://www.w3.org/2000/svg" width="28" height="32" viewBox="0 0 28 32">
  <path id="Tracé_292" data-name="Tracé 292" d="M28,5V8c0,2.762-6.269,5-14,5S0,10.762,0,8V5C0,2.237,6.269,0,14,0S28,2.237,28,5Zm-3.425,8.419A12.226,12.226,0,0,0,28,11.631V18c0,2.763-6.269,5-14,5S0,20.763,0,18V11.631a12.066,12.066,0,0,0,3.425,1.788A32.609,32.609,0,0,0,14,15,32.609,32.609,0,0,0,24.575,13.419ZM0,21.631a12.066,12.066,0,0,0,3.425,1.788A32.609,32.609,0,0,0,14,25a32.609,32.609,0,0,0,10.575-1.581A12.226,12.226,0,0,0,28,21.631V27c0,2.763-6.269,5-14,5S0,29.763,0,27Z" fill="#95995c" opacity="0.4"/>
  <path id="Tracé_293" data-name="Tracé 293" d="M0,131.631V128c0,2.762,6.269,5,14,5s14-2.238,14-5v3.631a12.066,12.066,0,0,1-3.425,1.788A32.609,32.609,0,0,1,14,135a32.609,32.609,0,0,1-10.575-1.581A12.226,12.226,0,0,1,0,131.631Zm0,10V138c0,2.762,6.269,5,14,5s14-2.237,14-5v3.631a12.066,12.066,0,0,1-3.425,1.788A32.609,32.609,0,0,1,14,145a32.609,32.609,0,0,1-10.575-1.581A12.227,12.227,0,0,1,0,141.631Z" transform="translate(0 -120)" fill="#95995c"/>
</svg>
