<svg xmlns="http://www.w3.org/2000/svg" width="32" height="22.404" viewBox="0 0 32 22.404">
  <g id="graduation-cap" transform="translate(0.015 -32)">
    <path id="Tracé_296" data-name="Tracé 296" d="M16.265,110.331a.8.8,0,1,0-.56-1.5l-7.975,2.99a8.243,8.243,0,0,0-5.34,7.43.543.543,0,0,0,0,.09,9.465,9.465,0,0,1-1.115,4.04,13.255,13.255,0,0,1-1.125,1.88.8.8,0,0,0,.445,1.26l3.2.8a.8.8,0,0,0,.62-.1.783.783,0,0,0,.355-.52,12.89,12.89,0,0,0-.1-5.435,11.285,11.285,0,0,0-.67-2.075,6.643,6.643,0,0,1,4.3-5.865l7.97-2.99Z" transform="translate(0 -72.941)" fill="#95995c" opacity="0.4"/>
    <path id="Tracé_297" data-name="Tracé 297" d="M16,32a3.537,3.537,0,0,0-1.185.205L.79,37.27a1.2,1.2,0,0,0,0,2.26l3.87,1.395A8.217,8.217,0,0,1,7.745,38.88l7.97-2.99a.8.8,0,0,1,.56,1.5L8.31,40.38a6.719,6.719,0,0,0-1.965,1.155l8.475,3.06a3.527,3.527,0,0,0,2.37,0l14.02-5.065a1.2,1.2,0,0,0,0-2.26L17.185,32.205A3.537,3.537,0,0,0,16,32ZM6.4,50.8c0,1.765,4.3,3.6,9.6,3.6s9.6-1.835,9.6-3.6l-.765-7.27-7.11,2.57a5.109,5.109,0,0,1-3.45,0l-7.11-2.57Z" transform="translate(-0.015)" fill="#95995c"/>
  </g>
</svg>
