<svg xmlns="http://www.w3.org/2000/svg" xmlns:xlink="http://www.w3.org/1999/xlink" width="296.374" height="190.366" viewBox="0 0 296.374 190.366">
  <defs>
    <clipPath id="clip-path">
      <rect id="Rectangle_8" data-name="Rectangle 8" width="9.398" height="9.686" fill="none"/>
    </clipPath>
  </defs>
  <g id="illu-section-1" transform="translate(-8.492 0)">
    <g id="Groupe_11" data-name="Groupe 11">
      <g id="Groupe_50" data-name="Groupe 50">
        <path id="Tracé_1" data-name="Tracé 1" d="M313.1,319.513a14.388,14.388,0,0,1,3.394-1.784l.466-3.525,5.857-.537,1.1,3.381a14.406,14.406,0,0,1,3.662,1.137l2.821-2.162,4.521,3.762-1.613,3.166a14.418,14.418,0,0,1,1.783,3.395l3.524.466.537,5.857-3.381,1.1a14.4,14.4,0,0,1-1.137,3.662l2.162,2.821-3.762,4.521-3.166-1.613a14.4,14.4,0,0,1-3.395,1.783l-.466,3.525-5.857.537-1.1-3.381a14.423,14.423,0,0,1-3.662-1.136l-2.821,2.162-4.521-3.762,1.613-3.166a14.426,14.426,0,0,1-1.784-3.395l-3.524-.466L303.817,330l3.381-1.1a14.425,14.425,0,0,1,1.137-3.662l-2.162-2.821,3.762-4.521Zm3.7,7.581a6.31,6.31,0,1,0,8.886-.815,6.309,6.309,0,0,0-8.886.815" transform="translate(-170.503 -176.032)" fill="#9e9c9a" opacity="0.4"/>
        <path id="Tracé_2" data-name="Tracé 2" d="M396.75,366.137a9.034,9.034,0,0,1,2.128-1.118l.292-2.21,3.672-.337.689,2.12a9.049,9.049,0,0,1,2.3.713l1.768-1.355,2.835,2.359-1.011,1.985a9.021,9.021,0,0,1,1.118,2.129l2.21.292.337,3.672-2.12.689a9.018,9.018,0,0,1-.713,2.3l1.355,1.768-2.359,2.835-1.985-1.011a9.017,9.017,0,0,1-2.128,1.118l-.292,2.21-3.672.337-.689-2.12a9.029,9.029,0,0,1-2.3-.713l-1.768,1.356-2.835-2.359,1.011-1.985a9.03,9.03,0,0,1-1.118-2.129l-2.21-.292-.337-3.672,2.12-.689a9.051,9.051,0,0,1,.713-2.3l-1.355-1.768,2.359-2.835Zm2.323,4.753a3.956,3.956,0,1,0,5.571-.511,3.956,3.956,0,0,0-5.571.511" transform="translate(-219.391 -203.421)" fill="#9e9c9a" opacity="0.2"/>
        <path id="Tracé_3" data-name="Tracé 3" d="M166.222,63.776a10.492,10.492,0,0,1,2.47-1.3l.339-2.566,4.263-.391.8,2.461a10.489,10.489,0,0,1,2.665.828l2.053-1.574,3.291,2.739-1.174,2.3a10.484,10.484,0,0,1,1.3,2.471l2.565.339.391,4.263-2.461.8a10.5,10.5,0,0,1-.827,2.665l1.574,2.053-2.738,3.291-2.3-1.174a10.473,10.473,0,0,1-2.471,1.3l-.339,2.566-4.263.391-.8-2.461a10.482,10.482,0,0,1-2.665-.827l-2.053,1.574-3.291-2.738,1.174-2.3a10.49,10.49,0,0,1-1.3-2.471l-2.565-.339-.391-4.263,2.461-.8a10.488,10.488,0,0,1,.827-2.665l-1.574-2.053,2.738-3.291Zm2.7,5.518a4.592,4.592,0,1,0,6.467-.593,4.592,4.592,0,0,0-6.467.593" transform="translate(-89.492 -33.404)" fill="#9e9c9a" opacity="0.2"/>
        <path id="Tracé_4" data-name="Tracé 4" d="M350.176,4.235a10.452,10.452,0,0,1,2.459-1.292l.337-2.553L357.215,0l.8,2.449a10.439,10.439,0,0,1,2.653.823l2.043-1.566,3.275,2.725-1.168,2.293a10.423,10.423,0,0,1,1.292,2.459l2.553.337.389,4.243-2.449.8a10.43,10.43,0,0,1-.824,2.653l1.566,2.043-2.724,3.275-2.294-1.169a10.455,10.455,0,0,1-2.459,1.292l-.337,2.553-4.243.389-.8-2.449a10.442,10.442,0,0,1-2.652-.824l-2.043,1.567-3.275-2.725,1.169-2.293a10.431,10.431,0,0,1-1.292-2.459l-2.553-.337-.389-4.243,2.449-.8a10.453,10.453,0,0,1,.823-2.653l-1.566-2.043,2.725-3.275Zm2.683,5.492a4.57,4.57,0,1,0,6.437-.59,4.571,4.571,0,0,0-6.437.59" transform="translate(-192.746 -0.001)" fill="#9e9c9a" opacity="0.4"/>
        <path id="Tracé_5" data-name="Tracé 5" d="M443.211,20.117a5.918,5.918,0,0,1,1.4-.735l.192-1.452,2.413-.221.453,1.393a5.951,5.951,0,0,1,1.509.468l1.162-.891,1.863,1.55-.665,1.3a5.933,5.933,0,0,1,.735,1.4l1.452.192.221,2.413-1.393.453a5.927,5.927,0,0,1-.469,1.509l.891,1.162-1.55,1.863-1.3-.664a5.941,5.941,0,0,1-1.4.735l-.192,1.452-2.413.221-.453-1.393a5.951,5.951,0,0,1-1.509-.468l-1.162.891-1.863-1.55.665-1.3a5.941,5.941,0,0,1-.735-1.4l-1.452-.192-.221-2.413,1.393-.453a5.927,5.927,0,0,1,.469-1.509l-.891-1.162,1.55-1.863Zm1.527,3.124A2.6,2.6,0,1,0,448.4,22.9a2.6,2.6,0,0,0-3.661.336" transform="translate(-246.585 -9.938)" fill="#9e9c9a" opacity="0.2"/>
        <path id="Tracé_6" data-name="Tracé 6" d="M114.665,176.51a9.673,9.673,0,0,1,2.278-1.2l.313-2.366,3.932-.36.738,2.269a9.667,9.667,0,0,1,2.458.763l1.893-1.452,3.035,2.525-1.083,2.125a9.654,9.654,0,0,1,1.2,2.279l2.366.312.36,3.932-2.269.738a9.669,9.669,0,0,1-.763,2.458l1.451,1.893-2.525,3.035-2.126-1.083a9.66,9.66,0,0,1-2.279,1.2l-.312,2.366-3.932.36-.738-2.269a9.667,9.667,0,0,1-2.458-.763l-1.893,1.452-3.035-2.525,1.083-2.126a9.67,9.67,0,0,1-1.2-2.279l-2.366-.312-.36-3.932,2.269-.738a9.685,9.685,0,0,1,.763-2.458l-1.452-1.893,2.525-3.035Zm2.487,5.089a4.235,4.235,0,1,0,5.965-.547,4.235,4.235,0,0,0-5.965.547" transform="translate(-60.853 -96.856)" fill="#9e9c9a" opacity="0.2"/>
        <path id="Tracé_15" data-name="Tracé 15" d="M81.019,41.023H61.875a2.4,2.4,0,0,1-2.4-2.4V12.13a2.4,2.4,0,0,1,2.4-2.4H74.016l9.4,9.686V38.628a2.4,2.4,0,0,1-2.4,2.4" transform="translate(-33.38 -5.463)" fill="#9e9c9a"/>
        <g id="Groupe_9" data-name="Groupe 9" transform="translate(40.636 4.272)" opacity="0.2">
          <g id="Groupe_8" data-name="Groupe 8">
            <g id="Groupe_7" data-name="Groupe 7" clip-path="url(#clip-path)">
              <path id="Tracé_17" data-name="Tracé 17" d="M92.608,9.735v7.457a2.228,2.228,0,0,0,2.227,2.228h7.171Z" transform="translate(-92.608 -9.735)" fill="#fff"/>
            </g>
          </g>
        </g>
        <path id="Tracé_18" data-name="Tracé 18" d="M92.83,28.221a2.477,2.477,0,0,0,1.965,2.4,2.26,2.26,0,0,0,.236.053c.936.168,7.1,1.264,7.1,1.122v-2H94.96s-1.791-.061-2.13-1.575" transform="translate(-52.096 -15.838)" fill="#0d1f22" opacity="0.2"/>
        <g id="ico_xs" transform="translate(32 19)">
          <rect id="zone" width="12" height="12" transform="translate(0)" fill="rgba(255,88,88,0.5)" opacity="0"/>
          <path id="brackets-curly" d="M8.69,32H8.024a.667.667,0,0,0,0,1.333H8.69A.666.666,0,0,1,9.357,34v.781A2,2,0,0,0,9.942,36.2l.471.471-.471.471a2,2,0,0,0-.585,1.414v.781A.666.666,0,0,1,8.69,40H8.024a.667.667,0,0,0,0,1.333H8.69a2,2,0,0,0,2-2v-.781a.665.665,0,0,1,.2-.471l.944-.944a.668.668,0,0,0,0-.944l-.944-.944a.665.665,0,0,1-.2-.471V34A2,2,0,0,0,8.69,32ZM3.358,32a2,2,0,0,0-2,2v.781a.665.665,0,0,1-.2.471L.22,36.2a.668.668,0,0,0,0,.944l.944.944a.665.665,0,0,1,.2.471v.779a2,2,0,0,0,2,2h.667a.667.667,0,0,0,0-1.333H3.358a.666.666,0,0,1-.667-.667v-.781a2,2,0,0,0-.585-1.414l-.471-.471.471-.471a2,2,0,0,0,.585-1.414V34a.666.666,0,0,1,.667-.667h.667a.667.667,0,0,0,0-1.333Z" transform="translate(-0.025 -30.666)" fill="#e8e6e5"/>
        </g>
      </g>
    </g>
    <g id="Groupe_18" data-name="Groupe 18">
      <g id="Groupe_44" data-name="Groupe 44">
        <path id="Tracé_25" data-name="Tracé 25" d="M289.274,206.182h-149.5a4.017,4.017,0,0,1-4.017-4.017v-100.7a4.255,4.255,0,0,1,4.255-4.255H290.446a4.255,4.255,0,0,1,4.255,4.255v99.289a5.429,5.429,0,0,1-5.428,5.428" transform="translate(-76.188 -54.555)" fill="#162c2f"/>
        <rect id="Rectangle_11" data-name="Rectangle 11" width="11.21" height="2.445" rx="1.222" transform="translate(79.859 58.284)" fill="#455a64"/>
        <rect id="Rectangle_12" data-name="Rectangle 12" width="5.605" height="2.445" rx="1.222" transform="translate(79.859 69.234)" fill="#6f732f"/>
        <rect id="Rectangle_13" data-name="Rectangle 13" width="7.893" height="2.445" rx="1.222" transform="translate(84.077 74.74)" fill="#455a64"/>
        <rect id="Rectangle_14" data-name="Rectangle 14" width="4.599" height="2.445" rx="1.222" transform="translate(93.225 74.74)" fill="#455a64"/>
        <rect id="Rectangle_15" data-name="Rectangle 15" width="9.458" height="2.445" rx="1.222" transform="translate(129.6 74.74)" fill="#455a64"/>
        <rect id="Rectangle_16" data-name="Rectangle 16" width="15.979" height="2.445" rx="1.222" transform="translate(150.721 80.109)" fill="#455a64"/>
        <rect id="Rectangle_17" data-name="Rectangle 17" width="7.673" height="2.445" rx="1.222" transform="translate(183.675 74.74)" fill="#455a64"/>
        <rect id="Rectangle_18" data-name="Rectangle 18" width="15.428" height="2.445" rx="1.222" transform="translate(193.702 74.74)" fill="#455a64"/>
        <rect id="Rectangle_19" data-name="Rectangle 19" width="7.893" height="2.445" rx="1.222" transform="translate(84.077 80.109)" fill="#455a64"/>
        <rect id="Rectangle_20" data-name="Rectangle 20" width="7.893" height="2.445" rx="1.222" transform="translate(79.228 85.463)" fill="#6f732f"/>
        <rect id="Rectangle_21" data-name="Rectangle 21" width="3.688" height="2.445" rx="1.222" transform="translate(83.433 90.817)" fill="#455a64"/>
        <rect id="Rectangle_22" data-name="Rectangle 22" width="3.688" height="2.445" rx="1.222" transform="translate(96.97 102.097)" fill="#455a64"/>
        <rect id="Rectangle_23" data-name="Rectangle 23" width="7.205" height="2.445" rx="1.222" transform="translate(147.696 122.476)" fill="#455a64"/>
        <rect id="Rectangle_24" data-name="Rectangle 24" width="17.651" height="2.445" transform="translate(177.502 122.476)" fill="#455a64"/>
        <rect id="Rectangle_25" data-name="Rectangle 25" width="7.205" height="2.445" transform="translate(120.569 117.127)" fill="#e0e0e0"/>
        <rect id="Rectangle_26" data-name="Rectangle 26" width="7.205" height="2.445" rx="1.222" transform="translate(94.463 112.535)" fill="#455a64"/>
        <rect id="Rectangle_27" data-name="Rectangle 27" width="11.36" height="2.445" rx="1.222" transform="translate(134.841 122.476)" fill="#455a64"/>
        <rect id="Rectangle_28" data-name="Rectangle 28" width="5.984" height="2.445" rx="1.222" transform="translate(83.433 96.271)" fill="#455a64"/>
        <rect id="Rectangle_29" data-name="Rectangle 29" width="11.101" height="2.445" rx="1.222" transform="translate(83.433 102.188)" fill="#455a64"/>
        <rect id="Rectangle_30" data-name="Rectangle 30" width="16.241" height="2.445" rx="1.222" transform="translate(83.433 106.718)" fill="#455a64"/>
        <rect id="Rectangle_31" data-name="Rectangle 31" width="16.241" height="2.445" rx="1.222" transform="translate(112.858 106.718)" fill="#455a64"/>
        <rect id="Rectangle_32" data-name="Rectangle 32" width="22.804" height="2.445" rx="1.222" transform="translate(94.32 117.127)" fill="#455a64"/>
        <rect id="Rectangle_33" data-name="Rectangle 33" width="38.57" height="2.445" rx="1.222" transform="translate(94.32 122.476)" fill="#455a64"/>
        <rect id="Rectangle_34" data-name="Rectangle 34" width="38.57" height="2.445" rx="1.222" transform="translate(82.651 127.825)" fill="#455a64"/>
        <rect id="Rectangle_35" data-name="Rectangle 35" width="9.743" height="2.445" rx="1.222" transform="translate(101.388 106.718)" fill="#455a64"/>
        <rect id="Rectangle_36" data-name="Rectangle 36" width="10.053" height="2.445" rx="1.222" transform="translate(88.576 90.817)" fill="#455a64"/>
        <rect id="Rectangle_37" data-name="Rectangle 37" width="10.053" height="2.445" rx="1.222" transform="translate(90.791 96.272)" fill="#455a64"/>
        <rect id="Rectangle_38" data-name="Rectangle 38" width="26.62" height="2.445" rx="1.222" transform="translate(113.176 96.272)" fill="#455a64"/>
        <rect id="Rectangle_39" data-name="Rectangle 39" width="30.746" height="2.445" rx="1.222" transform="translate(140.521 96.272)" fill="#455a64"/>
        <rect id="Rectangle_40" data-name="Rectangle 40" width="8.321" height="2.445" rx="1.222" transform="translate(102.498 96.272)" fill="#455a64"/>
        <rect id="Rectangle_41" data-name="Rectangle 41" width="13.179" height="2.445" rx="1.222" transform="translate(100.007 90.817)" fill="#455a64"/>
        <rect id="Rectangle_42" data-name="Rectangle 42" width="7.336" height="2.445" transform="translate(114.64 90.817)" fill="#e0e0e0"/>
        <rect id="Rectangle_43" data-name="Rectangle 43" width="8.228" height="2.445" rx="1.222" transform="translate(93.226 80.109)" fill="#455a64"/>
        <rect id="Rectangle_44" data-name="Rectangle 44" width="40.628" height="2.445" rx="1.222" transform="translate(107.044 80.109)" fill="#455a64"/>
        <rect id="Rectangle_45" data-name="Rectangle 45" width="19.211" height="2.445" rx="1.222" transform="translate(174.07 96.272)" fill="#455a64"/>
        <rect id="Rectangle_46" data-name="Rectangle 46" width="19.211" height="2.445" rx="1.222" transform="translate(156.772 122.476)" fill="#455a64"/>
        <rect id="Rectangle_47" data-name="Rectangle 47" width="40.022" height="2.445" rx="1.222" transform="translate(140.665 74.74)" fill="#455a64"/>
        <rect id="Rectangle_48" data-name="Rectangle 48" width="27.851" height="2.445" rx="1.222" transform="translate(99.261 74.74)" fill="#455a64"/>
        <rect id="Rectangle_49" data-name="Rectangle 49" width="18.752" height="2.445" rx="1.222" transform="translate(79.859 63.467)" fill="#455a64"/>
        <rect id="Rectangle_50" data-name="Rectangle 50" width="25.676" height="2.445" rx="1.222" transform="translate(100.482 63.467)" fill="#455a64"/>
        <rect id="Rectangle_51" data-name="Rectangle 51" width="8.255" height="2.445" rx="1.222" transform="translate(92.821 58.284)" fill="#e0e0e0"/>
        <rect id="Rectangle_52" data-name="Rectangle 52" width="2.367" height="2.445" transform="translate(68.934 58.284)" fill="#455a64"/>
        <rect id="Rectangle_53" data-name="Rectangle 53" width="2.367" height="2.445" transform="translate(68.934 63.634)" fill="#455a64"/>
        <rect id="Rectangle_54" data-name="Rectangle 54" width="2.367" height="2.445" transform="translate(68.934 68.983)" fill="#455a64"/>
        <rect id="Rectangle_55" data-name="Rectangle 55" width="2.367" height="2.445" transform="translate(68.934 74.332)" fill="#455a64"/>
        <rect id="Rectangle_56" data-name="Rectangle 56" width="2.367" height="2.445" transform="translate(68.934 79.681)" fill="#455a64"/>
        <rect id="Rectangle_57" data-name="Rectangle 57" width="2.367" height="2.445" transform="translate(68.934 85.031)" fill="#455a64"/>
        <rect id="Rectangle_58" data-name="Rectangle 58" width="2.367" height="2.445" transform="translate(68.934 90.38)" fill="#455a64"/>
        <rect id="Rectangle_59" data-name="Rectangle 59" width="2.367" height="2.445" transform="translate(68.934 95.73)" fill="#455a64"/>
        <rect id="Rectangle_60" data-name="Rectangle 60" width="2.367" height="2.445" transform="translate(68.934 101.079)" fill="#455a64"/>
        <rect id="Rectangle_61" data-name="Rectangle 61" width="3.688" height="2.445" rx="1.222" transform="translate(96.065 139.381)" fill="#e0e0e0"/>
        <rect id="Rectangle_62" data-name="Rectangle 62" width="11.101" height="2.445" rx="1.222" transform="translate(82.723 139.381)" fill="#6f732f"/>
        <rect id="Rectangle_63" data-name="Rectangle 63" width="2.367" height="2.445" transform="translate(68.934 139.109)" fill="#455a64"/>
        <rect id="Rectangle_64" data-name="Rectangle 64" width="2.367" height="2.445" transform="translate(68.934 106.428)" fill="#455a64"/>
        <rect id="Rectangle_65" data-name="Rectangle 65" width="2.367" height="2.445" transform="translate(68.934 111.777)" fill="#455a64"/>
        <rect id="Rectangle_66" data-name="Rectangle 66" width="2.367" height="2.445" transform="translate(68.934 117.127)" fill="#455a64"/>
        <rect id="Rectangle_67" data-name="Rectangle 67" width="2.367" height="2.445" transform="translate(68.934 122.476)" fill="#455a64"/>
        <rect id="Rectangle_68" data-name="Rectangle 68" width="2.367" height="2.445" transform="translate(68.934 127.825)" fill="#455a64"/>
        <rect id="Rectangle_69" data-name="Rectangle 69" width="11.245" height="2.445" rx="1.222" transform="translate(82.651 133.454)" fill="#455a64"/>
        <rect id="Rectangle_70" data-name="Rectangle 70" width="25.436" height="2.445" rx="1.222" transform="translate(96.065 133.454)" fill="#455a64"/>
        <rect id="Rectangle_71" data-name="Rectangle 71" width="2.367" height="2.445" transform="translate(68.934 133.454)" fill="#455a64"/>
        <rect id="Rectangle_72" data-name="Rectangle 72" width="8.255" height="2.445" rx="1.222" transform="translate(129.29 63.451)" fill="#e0e0e0"/>
        <path id="Tracé_26" data-name="Tracé 26" d="M155.5,111.123a1.679,1.679,0,1,1-1.679-1.679,1.679,1.679,0,0,1,1.679,1.679" transform="translate(-85.383 -61.42)" fill="#455a64"/>
        <path id="Tracé_27" data-name="Tracé 27" d="M166.124,111.123a1.679,1.679,0,1,1-1.679-1.679,1.679,1.679,0,0,1,1.679,1.679" transform="translate(-91.344 -61.42)" fill="#455a64"/>
        <path id="Tracé_28" data-name="Tracé 28" d="M176.746,111.123a1.679,1.679,0,1,1-1.679-1.679,1.679,1.679,0,0,1,1.679,1.679" transform="translate(-97.305 -61.42)" fill="#455a64"/>
        <g id="Groupe_51" data-name="Groupe 51" transform="translate(17.442 11.604)">
          <path id="Tracé_29" data-name="Tracé 29" d="M385.559,283.932H325.713a3.176,3.176,0,0,1-3.176-3.176V249.168a3.175,3.175,0,0,1,3.176-3.175h59.846a3.175,3.175,0,0,1,3.176,3.175v31.589a3.176,3.176,0,0,1-3.176,3.176" transform="translate(-181.009 -138.052)" fill="#3c5233"/>
          <path id="Tracé_30" data-name="Tracé 30" d="M397.433,274.691h-62.3a1.95,1.95,0,0,1-1.95-1.95V238.7a1.95,1.95,0,0,1,1.95-1.95h62.3a1.95,1.95,0,0,1,1.95,1.95v34.039a1.95,1.95,0,0,1-1.95,1.95" transform="translate(-186.985 -132.866)" fill="#6f732f"/>
          <path id="Tracé_31" data-name="Tracé 31" d="M377.857,275.822h-6.044L370.69,278.6h-4.125l6.31-14.294h3.982l6.33,14.294H378.98Zm-1.184-2.981-1.838-4.574L373,272.84Z" transform="translate(-205.718 -148.329)" fill="#e8e6e5"/>
          <path id="Tracé_32" data-name="Tracé 32" d="M416.954,264.948a5.041,5.041,0,0,1,0,9.27,8.147,8.147,0,0,1-3.369.643h-2.491V278.6h-4.043V264.3h6.534a8.154,8.154,0,0,1,3.369.643m-1.735,6.188a1.918,1.918,0,0,0,.633-1.542,1.95,1.95,0,0,0-.633-1.552,2.789,2.789,0,0,0-1.879-.551h-2.246v4.186h2.246a2.826,2.826,0,0,0,1.879-.541" transform="translate(-228.438 -148.329)" fill="#e8e6e5"/>
          <rect id="Rectangle_74" data-name="Rectangle 74" width="4.043" height="14.294" transform="translate(193.458 115.976)" fill="#e8e6e5"/>
        </g>
      </g>
    </g>
    <g id="Groupe_23" data-name="Groupe 23">
      <g id="Groupe_43" data-name="Groupe 43" transform="translate(-41 -14)">
        <path id="Tracé_42" data-name="Tracé 42" d="M270.729,77.024H238.567a3.678,3.678,0,0,1-3.678-3.678V54.573a3.678,3.678,0,0,1,3.678-3.678h32.162a3.678,3.678,0,0,1,3.678,3.678V73.346a3.678,3.678,0,0,1-3.678,3.678" transform="translate(-131.821 -28.562)" fill="#3c5233"/>
        <path id="Tracé_44" data-name="Tracé 44" d="M264.684,77.024H232.522a3.678,3.678,0,0,1-3.678-3.678V54.573a3.678,3.678,0,0,1,3.678-3.678h32.162a3.678,3.678,0,0,1,3.678,3.678V73.346a3.678,3.678,0,0,1-3.678,3.678" transform="translate(-128.428 -28.562)" fill="#6f732f"/>
        <g id="ico_s" transform="translate(112 27)">
          <rect id="zone-2" data-name="zone" width="16" height="16" fill="rgba(255,88,88,0.5)" opacity="0"/>
          <path id="code" d="M9.845-.023a.8.8,0,0,0-.99.55l-3.2,11.2a.8.8,0,1,0,1.54.44l3.2-11.2a.8.8,0,0,0-.55-.99Zm2.015,3a.8.8,0,0,0,0,1.133l2.233,2.235L11.857,8.583A.8.8,0,0,0,12.99,9.715l2.8-2.8a.8.8,0,0,0,0-1.133l-2.8-2.8a.8.8,0,0,0-1.133,0Zm-7.668,0a.8.8,0,0,0-1.133,0l-2.8,2.8a.8.8,0,0,0,0,1.133l2.8,2.8A.8.8,0,1,0,4.192,8.58L1.957,6.348,4.192,4.112a.8.8,0,0,0,0-1.133Z" transform="translate(-0.025 1.652)" fill="#e8e6e5"/>
        </g>
      </g>
    </g>
    <g id="Groupe_30" data-name="Groupe 30">
      <g id="Groupe_49" data-name="Groupe 49">
        <path id="Tracé_51" data-name="Tracé 51" d="M593.888,130.582H527.323a4.428,4.428,0,0,1-4.428-4.428V31.315a4.428,4.428,0,0,1,4.428-4.427h66.565a4.428,4.428,0,0,1,4.428,4.427v94.839a4.428,4.428,0,0,1-4.428,4.428" transform="translate(-293.451 -15.09)" fill="#f7f7f7"/>
        <rect id="Rectangle_80" data-name="Rectangle 80" width="18.332" height="15.301" rx="2" transform="translate(257.989 68.992)" fill="#e0e0e0"/>
        <rect id="Rectangle_81" data-name="Rectangle 81" width="18.332" height="15.301" rx="2" transform="translate(281.183 69.188)" fill="#e0e0e0"/>
        <rect id="Rectangle_82" data-name="Rectangle 82" width="18.332" height="15.301" rx="2" transform="translate(234.794 69.188)" fill="#e0e0e0"/>
        <rect id="Rectangle_83" data-name="Rectangle 83" width="75.421" height="27.963" transform="translate(229.444 33.821)" fill="#e0e0e0"/>
        <path id="Tracé_52" data-name="Tracé 52" d="M598.316,37.242H522.9V30.958a4.071,4.071,0,0,1,4.071-4.071h66.785a4.565,4.565,0,0,1,4.565,4.565Z" transform="translate(-293.451 -15.089)" fill="#e0e0e0"/>
        <path id="Tracé_53" data-name="Tracé 53" d="M538.383,59.582A3.284,3.284,0,1,1,535.1,56.3a3.284,3.284,0,0,1,3.284,3.284" transform="translate(-298.456 -31.595)" fill="#6f732f"/>
        <rect id="Rectangle_84" data-name="Rectangle 84" width="12.064" height="2.811" rx="1.406" transform="translate(257.369 26.53)" fill="#e0e0e0"/>
        <rect id="Rectangle_85" data-name="Rectangle 85" width="12.064" height="2.811" rx="1.406" transform="translate(272.404 26.53)" fill="#e0e0e0"/>
        <rect id="Rectangle_86" data-name="Rectangle 86" width="12.064" height="2.811" rx="1.406" transform="translate(287.439 26.53)" fill="#e0e0e0"/>
        <rect id="Rectangle_87" data-name="Rectangle 87" width="18.332" height="2.451" rx="1.225" transform="translate(234.794 89.659)" fill="#e0e0e0"/>
        <rect id="Rectangle_88" data-name="Rectangle 88" width="18.332" height="2.451" rx="1.225" transform="translate(234.794 95.008)" fill="#e0e0e0"/>
        <rect id="Rectangle_89" data-name="Rectangle 89" width="9.926" height="2.451" rx="1.225" transform="translate(234.794 100.358)" fill="#e0e0e0"/>
        <rect id="Rectangle_90" data-name="Rectangle 90" width="18.332" height="2.451" rx="1.225" transform="translate(258.36 89.659)" fill="#e0e0e0"/>
        <rect id="Rectangle_91" data-name="Rectangle 91" width="18.332" height="2.451" rx="1.225" transform="translate(258.36 95.008)" fill="#e0e0e0"/>
        <rect id="Rectangle_92" data-name="Rectangle 92" width="9.926" height="2.451" rx="1.225" transform="translate(258.36 100.358)" fill="#e0e0e0"/>
        <rect id="Rectangle_93" data-name="Rectangle 93" width="18.332" height="2.451" rx="1.225" transform="translate(281.927 89.659)" fill="#e0e0e0"/>
        <rect id="Rectangle_94" data-name="Rectangle 94" width="18.332" height="2.451" rx="1.225" transform="translate(281.927 95.008)" fill="#e0e0e0"/>
        <rect id="Rectangle_95" data-name="Rectangle 95" width="9.926" height="2.451" rx="1.225" transform="translate(281.926 100.358)" fill="#e0e0e0"/>
        <path id="Tracé_55" data-name="Tracé 55" d="M536.47,38.315a1.257,1.257,0,1,1-1.256-1.256,1.256,1.256,0,0,1,1.256,1.256" transform="translate(-299.659 -20.798)" fill="#fff"/>
        <path id="Tracé_56" data-name="Tracé 56" d="M545.522,38.315a1.257,1.257,0,1,1-1.256-1.256,1.256,1.256,0,0,1,1.256,1.256" transform="translate(-304.739 -20.798)" fill="#fff"/>
        <path id="Tracé_57" data-name="Tracé 57" d="M554.574,38.315a1.257,1.257,0,1,1-1.256-1.256,1.256,1.256,0,0,1,1.256,1.256" transform="translate(-309.819 -20.798)" fill="#fff"/>
        <path id="Tracé_58" data-name="Tracé 58" d="M596.927,100.5V94.371a1.541,1.541,0,0,1,2.31-1.295L604.7,96.14,610.17,99.2a1.473,1.473,0,0,1,0,2.589l-5.467,3.064-5.466,3.063a1.541,1.541,0,0,1-2.31-1.295Z" transform="translate(-334.998 -52.121)" fill="#f7f7f7"/>
      </g>
    </g>
    <g id="Groupe_32" data-name="Groupe 32">
      <g id="Groupe_48" data-name="Groupe 48">
        <path id="Tracé_59" data-name="Tracé 59" d="M634.13,330.928l-28.958-.126a6.131,6.131,0,0,1-6.279-5.972l.307-68.441a6.14,6.14,0,0,1,6.337-5.922l28.958.126a6.131,6.131,0,0,1,6.279,5.972l-.307,68.441a6.139,6.139,0,0,1-6.337,5.922" transform="translate(-336.101 -140.563)" fill="#263238"/>
        <path id="Tracé_60" data-name="Tracé 60" d="M636.913,255.977l-5.614-.025-16.4-.071-1.975-.009-4.914-.021A4.3,4.3,0,0,0,603.574,260l-.3,66.8a4.294,4.294,0,0,0,4.4,4.183l28.9.126a4.3,4.3,0,0,0,4.438-4.147l.3-66.8a4.294,4.294,0,0,0-4.4-4.182" transform="translate(-338.56 -143.584)" fill="#f7f7f7"/>
        <path id="Tracé_61" data-name="Tracé 61" d="M679.583,269.859a.358.358,0,1,1-.357-.349.353.353,0,0,1,.357.349" transform="translate(-380.982 -151.25)" fill="#263238"/>
        <path id="Tracé_62" data-name="Tracé 62" d="M679.572,272.71a.358.358,0,1,1-.357-.349.353.353,0,0,1,.357.349" transform="translate(-380.976 -152.85)" fill="#263238"/>
        <path id="Tracé_63" data-name="Tracé 63" d="M679.561,275.56a.358.358,0,1,1-.357-.349.353.353,0,0,1,.357.349" transform="translate(-380.97 -154.449)" fill="#263238"/>
        <path id="Tracé_64" data-name="Tracé 64" d="M618.479,271.009a2.366,2.366,0,1,1-2.365-2.3,2.331,2.331,0,0,1,2.365,2.3" transform="translate(-344.439 -150.803)" fill="#6f732f"/>
        <path id="Tracé_65" data-name="Tracé 65" d="M648.055,272.933H635.931a.789.789,0,0,1,0-1.577h12.124a.789.789,0,0,1,0,1.577" transform="translate(-356.444 -152.286)" fill="#e0e0e0"/>
        <path id="Tracé_66" data-name="Tracé 66" d="M630.4,330.812v-6.783a1.706,1.706,0,0,1,2.558-1.433L639,325.988l6.052,3.391a1.631,1.631,0,0,1,0,2.866L639,335.637l-6.052,3.391A1.706,1.706,0,0,1,630.4,337.6Z" transform="translate(-353.78 -180.916)" fill="#6f732f"/>
      </g>
    </g>
    <g id="Groupe_37" data-name="Groupe 37">
      <g id="Groupe_47" data-name="Groupe 47">
        <path id="Tracé_67" data-name="Tracé 67" d="M483.013,379.448c2.569-4.085,6.917-5.035,10.866-4.136a17.127,17.127,0,0,1,33.906-4.73c4.094-2.9,10.237-.938,13.239,3.083s3.187,12.609-.332,16.653L484,389.993s-4.318-5.249-.987-10.545" transform="translate(-270.361 -200.04)" fill="#3c5233"/>
        <path id="Tracé_69" data-name="Tracé 69" d="M471.912,379.448c2.569-4.085,6.917-5.035,10.866-4.136a17.127,17.127,0,0,1,33.906-4.73c4.094-2.9,10.237-.938,13.239,3.083s3.187,12.609-.332,16.653l-56.693-.324s-4.318-5.249-.987-10.545" transform="translate(-264.131 -200.04)" fill="#6f732f"/>
      </g>
    </g>
    <g id="Groupe_39" data-name="Groupe 39">
      <g id="Groupe_46" data-name="Groupe 46">
        <path id="Tracé_70" data-name="Tracé 70" d="M76.97,361.313H21.051a1.7,1.7,0,0,1-1.7-1.7V306.306a1.7,1.7,0,0,1,1.7-1.7H76.97a1.7,1.7,0,0,1,1.7,1.7v53.308a1.7,1.7,0,0,1-1.7,1.7" transform="translate(-10.86 -170.947)" fill="#9e9c9a"/>
        <path id="Tracé_73" data-name="Tracé 73" d="M43.567,324.768a1.29,1.29,0,1,1-1.29-1.29,1.29,1.29,0,0,1,1.29,1.29" transform="translate(-23.003 -181.537)" fill="#e8e6e5"/>
        <path id="Tracé_74" data-name="Tracé 74" d="M54.112,324.768a1.29,1.29,0,1,1-1.29-1.29,1.29,1.29,0,0,1,1.29,1.29" transform="translate(-28.921 -181.537)" fill="#e8e6e5"/>
        <path id="Tracé_75" data-name="Tracé 75" d="M120.144,326.286h-.222a.478.478,0,0,1-.478-.478v-3.436a.478.478,0,0,1,.478-.478h.222a.478.478,0,0,1,.478.478v3.436a.478.478,0,0,1-.478.478" transform="translate(-67.032 -180.648)" fill="#3c5233"/>
        <path id="Tracé_76" data-name="Tracé 76" d="M126.92,326.286H126.7a.478.478,0,0,1-.478-.478v-3.436a.478.478,0,0,1,.478-.478h.222a.478.478,0,0,1,.478.478v3.436a.478.478,0,0,1-.478.478" transform="translate(-70.835 -180.648)" fill="#0d1f22"/>
        <path id="Tracé_77" data-name="Tracé 77" d="M133.167,326.286h-.222a.478.478,0,0,1-.478-.478v-3.436a.478.478,0,0,1,.478-.478h.222a.478.478,0,0,1,.478.478v3.436a.478.478,0,0,1-.478.478" transform="translate(-74.34 -180.648)" fill="#e8e6e5"/>
        <path id="Tracé_78" data-name="Tracé 78" d="M113.281,326.286h-.222a.478.478,0,0,1-.478-.478v-3.436a.478.478,0,0,1,.478-.478h.222a.478.478,0,0,1,.478.478v3.436a.478.478,0,0,1-.478.478" transform="translate(-63.18 -180.648)" fill="#6f732f"/>
        <path id="Tracé_79" data-name="Tracé 79" d="M43.567,365.076a1.29,1.29,0,1,1-1.29-1.29,1.29,1.29,0,0,1,1.29,1.29" transform="translate(-23.003 -202.611)" fill="#e8e6e5"/>
        <path id="Tracé_80" data-name="Tracé 80" d="M53.541,365.076a1.29,1.29,0,1,1-1.29-1.29,1.29,1.29,0,0,1,1.29,1.29" transform="translate(-28.6 -202.611)" fill="#e8e6e5"/>
        <path id="Tracé_81" data-name="Tracé 81" d="M120.144,366.594h-.222a.478.478,0,0,1-.478-.478V362.68a.478.478,0,0,1,.478-.478h.222a.478.478,0,0,1,.478.478v3.436a.478.478,0,0,1-.478.478" transform="translate(-67.032 -201.722)" fill="#3c5233"/>
        <path id="Tracé_82" data-name="Tracé 82" d="M126.92,366.594H126.7a.478.478,0,0,1-.478-.478V362.68a.478.478,0,0,1,.478-.478h.222a.478.478,0,0,1,.478.478v3.436a.478.478,0,0,1-.478.478" transform="translate(-70.835 -201.722)" fill="#0d1f22"/>
        <path id="Tracé_83" data-name="Tracé 83" d="M133.167,366.594h-.222a.478.478,0,0,1-.478-.478V362.68a.478.478,0,0,1,.478-.478h.222a.478.478,0,0,1,.478.478v3.436a.478.478,0,0,1-.478.478" transform="translate(-74.34 -201.722)" fill="#e8e6e5"/>
        <path id="Tracé_84" data-name="Tracé 84" d="M113.281,366.594h-.222a.478.478,0,0,1-.478-.478V362.68a.478.478,0,0,1,.478-.478h.222a.478.478,0,0,1,.478.478v3.436a.478.478,0,0,1-.478.478" transform="translate(-63.18 -201.722)" fill="#6f732f"/>
        <path id="Tracé_85" data-name="Tracé 85" d="M43.567,408.461a1.29,1.29,0,1,1-1.29-1.29,1.29,1.29,0,0,1,1.29,1.29" transform="translate(-23.003 -228.506)" fill="#e8e6e5"/>
        <path id="Tracé_86" data-name="Tracé 86" d="M54.39,408.461a1.29,1.29,0,1,1-1.29-1.29,1.29,1.29,0,0,1,1.29,1.29" transform="translate(-29.077 -228.506)" fill="#e8e6e5"/>
        <path id="Tracé_87" data-name="Tracé 87" d="M120.144,409.98h-.222a.478.478,0,0,1-.478-.478v-3.436a.478.478,0,0,1,.478-.478h.222a.478.478,0,0,1,.478.478V409.5a.478.478,0,0,1-.478.478" transform="translate(-67.032 -227.617)" fill="#3c5233"/>
        <path id="Tracé_88" data-name="Tracé 88" d="M126.92,409.98H126.7a.478.478,0,0,1-.478-.478v-3.436a.478.478,0,0,1,.478-.478h.222a.478.478,0,0,1,.478.478V409.5a.478.478,0,0,1-.478.478" transform="translate(-70.835 -227.617)" fill="#0d1f22"/>
        <path id="Tracé_89" data-name="Tracé 89" d="M133.167,409.98h-.222a.478.478,0,0,1-.478-.478v-3.436a.478.478,0,0,1,.478-.478h.222a.478.478,0,0,1,.478.478V409.5a.478.478,0,0,1-.478.478" transform="translate(-74.34 -227.617)" fill="#e8e6e5"/>
        <path id="Tracé_90" data-name="Tracé 90" d="M113.281,409.98h-.222a.478.478,0,0,1-.478-.478v-3.436a.478.478,0,0,1,.478-.478h.222a.478.478,0,0,1,.478.478V409.5a.478.478,0,0,1-.478.478" transform="translate(-63.18 -227.617)" fill="#6f732f"/>
        <rect id="Rectangle_97" data-name="Rectangle 97" width="55" height="1" rx="0.5" transform="translate(11 152)" fill="#888786"/>
        <rect id="Rectangle_98" data-name="Rectangle 98" width="55" height="1" rx="0.5" transform="translate(11 172)" fill="#888786"/>
      </g>
    </g>
  </g>
</svg>
