<svg xmlns="http://www.w3.org/2000/svg" width="22" height="25" viewBox="0 0 22 25">
  <path id="memo-pad" d="M18.75,6V21a.752.752,0,0,1-.75.75H3A.752.752,0,0,1,2.25,21V6ZM3,0A3,3,0,0,0,0,3V21a3,3,0,0,0,3,3H18a3,3,0,0,0,3-3V3a3,3,0,0,0-3-3ZM4.5,9.375A1.122,1.122,0,0,0,5.625,10.5h9.75a1.125,1.125,0,0,0,0-2.25H5.625A1.122,1.122,0,0,0,4.5,9.375Zm0,4.5A1.122,1.122,0,0,0,5.625,15h9.75a1.125,1.125,0,1,0,0-2.25H5.625A1.122,1.122,0,0,0,4.5,13.875Zm0,4.5A1.122,1.122,0,0,0,5.625,19.5h5.25a1.125,1.125,0,1,0,0-2.25H5.625A1.122,1.122,0,0,0,4.5,18.375Z" transform="translate(0.5 0.5)" fill="#6f732f" stroke="rgba(0,0,0,0)" stroke-width="1"/>
</svg>
