<svg xmlns="http://www.w3.org/2000/svg" width="25.023" height="25.022" viewBox="0 0 25.023 25.022">
  <path id="phone-volume" d="M13.125,0A10.877,10.877,0,0,1,24,10.875a1.125,1.125,0,1,1-2.25,0A8.626,8.626,0,0,0,13.125,2.25a1.125,1.125,0,0,1,0-2.25ZM13.5,9A1.5,1.5,0,1,1,12,10.5,1.5,1.5,0,0,1,13.5,9ZM12,5.625A1.122,1.122,0,0,1,13.125,4.5,6.376,6.376,0,0,1,19.5,10.875a1.125,1.125,0,1,1-2.25,0A4.125,4.125,0,0,0,13.125,6.75,1.122,1.122,0,0,1,12,5.625Zm3.422,7.814a1.867,1.867,0,0,1,2.189-.534l5.25,2.25a1.874,1.874,0,0,1,1.1,2.114l-1.125,5.25A1.88,1.88,0,0,1,21,24h0c-.286,0-.572,0-.853-.019h0c-.469-.019-.928-.052-1.387-.1A21,21,0,0,1,0,3H0A1.872,1.872,0,0,1,1.481,1.167L6.731.042a1.872,1.872,0,0,1,2.114,1.1l2.25,5.25a1.874,1.874,0,0,1-.534,2.189l-1.9,1.556a14.372,14.372,0,0,0,5.208,5.208ZM21.693,17.1l-4.706-2.016-1.378,1.678a2.25,2.25,0,0,1-2.869.52,16.592,16.592,0,0,1-6.028-6.028,2.25,2.25,0,0,1,.52-2.869L8.915,7.008,6.9,2.3l-4.645,1A18.754,18.754,0,0,0,20.695,21.75l1-4.65Z" transform="translate(0.5 0.522)" fill="#6f732f" stroke="rgba(0,0,0,0)" stroke-width="1"/>
</svg>
