<svg xmlns="http://www.w3.org/2000/svg" width="32" height="16.83" viewBox="0 0 32 16.83">
  <path id="php" d="M16,88.54c8.57,0,15.16,3.61,15.16,7.575s-6.6,7.575-15.16,7.575S.84,100.08.84,96.115,7.435,88.54,16,88.54m0-.84c-8.835,0-16,3.765-16,8.415s7.165,8.415,16,8.415,16-3.765,16-8.415S24.835,87.7,16,87.7Zm-5.09,7.74c-.395,2.025-1.79,1.815-3.5,1.815l.685-3.53c1.9,0,3.19-.205,2.82,1.715Zm-6.04,5.39H6.705l.435-2.24c2.055,0,3.33.15,4.51-.955,1.305-1.2,1.645-3.335.715-4.4A2.926,2.926,0,0,0,10.04,92.4H6.505Zm9.285-10.68H15.98l-.435,2.24c1.575,0,3.035-.115,3.74.535.74.68.385,1.55-.415,5.655H17.02c.77-3.97.915-4.3.635-4.6s-.885-.23-2.37-.23l-.94,4.83H12.52l1.635-8.43Zm11.1,5.29c-.4,2.055-1.835,1.815-3.505,1.815l.685-3.53C24.34,93.725,25.62,93.52,25.25,95.44Zm-6.04,5.39h1.84l.435-2.24c2.16,0,3.355.125,4.51-.955,1.3-1.2,1.645-3.335.715-4.4a2.926,2.926,0,0,0-2.325-.835H20.85Z" transform="translate(0 -87.7)" fill="#95995c"/>
</svg>
