<svg xmlns="http://www.w3.org/2000/svg" width="32" height="28.001" viewBox="0 0 32 28.001">
  <path id="react" d="M26.138,41.087q-.506-.169-1.013-.319c.056-.231.106-.462.156-.694.769-3.725.263-6.719-1.444-7.706-1.644-.944-4.325.037-7.037,2.4-.269.231-.531.475-.781.719-.169-.162-.344-.325-.519-.481-2.844-2.525-5.694-3.587-7.4-2.594-1.637.95-2.125,3.769-1.437,7.294.069.35.144.694.231,1.044-.4.112-.794.237-1.163.369C2.394,42.274,0,44.1,0,45.987c0,1.95,2.55,3.906,6.019,5.094.281.094.563.188.85.269-.094.375-.175.744-.25,1.125-.656,3.469-.144,6.219,1.494,7.163,1.688.975,4.525-.025,7.288-2.444.219-.194.438-.394.656-.606.275.269.563.525.85.775,2.675,2.3,5.319,3.231,6.95,2.287,1.688-.975,2.237-3.931,1.525-7.531q-.084-.413-.187-.844c.2-.056.394-.119.587-.181C29.388,49.9,32,47.968,32,45.987,32,44.093,29.538,42.255,26.138,41.087ZM17.681,35.78c2.325-2.025,4.494-2.819,5.481-2.25,1.056.606,1.462,3.056.8,6.275-.044.212-.087.419-.144.625a32,32,0,0,0-4.206-.663,31.579,31.579,0,0,0-2.663-3.319C17.194,36.218,17.431,36,17.681,35.78ZM10.45,49.23c.319.544.644,1.087.988,1.619a28.3,28.3,0,0,1-2.9-.469A29.2,29.2,0,0,1,9.556,47.6c.288.55.581,1.094.894,1.631ZM8.556,41.712c.9-.2,1.856-.363,2.85-.488-.331.519-.656,1.05-.962,1.588s-.606,1.075-.887,1.625C9.163,43.505,8.831,42.593,8.556,41.712Zm1.712,4.306c.413-.863.863-1.706,1.337-2.538s.988-1.637,1.525-2.431c.938-.069,1.894-.106,2.869-.106s1.937.037,2.869.106q.8,1.181,1.519,2.419t1.356,2.525q-.628,1.294-1.35,2.55c-.475.831-.981,1.637-1.513,2.438-.931.069-1.9.1-2.881.1s-1.931-.031-2.85-.088q-.816-1.191-1.538-2.437c-.481-.831-.925-1.675-1.344-2.537Zm11.288,3.2c.319-.55.619-1.106.913-1.669a29.013,29.013,0,0,1,1.056,2.769,27.451,27.451,0,0,1-2.937.5C20.925,50.293,21.244,49.755,21.556,49.218Zm.9-4.781c-.294-.55-.594-1.1-.906-1.638s-.625-1.056-.956-1.575a28.76,28.76,0,0,1,2.869.5A27.66,27.66,0,0,1,22.456,44.437Zm-6.444-7.031a27.447,27.447,0,0,1,1.85,2.237c-1.237-.056-2.481-.056-3.719,0C14.756,38.837,15.387,38.087,16.013,37.405Zm-7.25-3.831c1.05-.612,3.381.263,5.838,2.438.156.138.313.287.475.438a31.754,31.754,0,0,0-2.681,3.319,32.945,32.945,0,0,0-4.2.65c-.081-.319-.15-.644-.219-.969-.588-3.025-.2-5.306.787-5.875ZM7.231,50.049c-.263-.075-.519-.156-.775-.244a12.747,12.747,0,0,1-3.938-1.95,2.8,2.8,0,0,1-1.175-1.869c0-1.144,1.975-2.606,4.825-3.6.356-.125.719-.237,1.081-.344a33.234,33.234,0,0,0,1.531,3.975A34.164,34.164,0,0,0,7.231,50.049Zm7.287,6.125a11.439,11.439,0,0,1-3.525,2.206,2.766,2.766,0,0,1-2.206.081c-.994-.575-1.406-2.781-.844-5.75.069-.35.144-.7.231-1.044a31.267,31.267,0,0,0,4.244.612,32.981,32.981,0,0,0,2.7,3.338c-.2.194-.4.381-.6.556Zm1.531-1.519c-.638-.687-1.275-1.45-1.894-2.269.6.025,1.219.038,1.844.038.644,0,1.275-.013,1.9-.044A26.951,26.951,0,0,1,16.05,54.655Zm8.169,1.875a2.778,2.778,0,0,1-1.031,1.956c-.994.575-3.112-.175-5.4-2.138-.263-.225-.525-.469-.794-.719a30.917,30.917,0,0,0,2.638-3.35,30.811,30.811,0,0,0,4.263-.656c.063.256.119.513.169.763A11.393,11.393,0,0,1,24.219,56.53Zm1.138-6.719c-.175.056-.35.113-.531.162a31.75,31.75,0,0,0-1.594-3.987,31.591,31.591,0,0,0,1.531-3.931c.325.094.638.194.938.294,2.913,1,4.956,2.488,4.956,3.625C30.656,47.2,28.475,48.78,25.356,49.812ZM16,48.874a2.862,2.862,0,1,0-2.863-2.862A2.862,2.862,0,0,0,16,48.874Z" transform="translate(0 -32.012)" fill="#95995c"/>
</svg>
