<svg xmlns="http://www.w3.org/2000/svg" width="32" height="32" viewBox="0 0 32 32">
  <path id="square-js" d="M32,36.571A4.576,4.576,0,0,0,27.429,32H4.571A4.576,4.576,0,0,0,0,36.571V59.429A4.576,4.576,0,0,0,4.571,64H27.429A4.576,4.576,0,0,0,32,59.429ZM12.921,61.493a4.672,4.672,0,0,1-4.514-2.75l2.45-1.479c.471.836.9,1.543,1.936,1.543.986,0,1.614-.386,1.614-1.893V46.693h3.007V56.957c0,3.114-1.829,4.536-4.493,4.536Zm6.129-3.071,2.45-1.414a3.282,3.282,0,0,0,2.964,1.829c1.243,0,2.043-.621,2.043-1.486,0-1.029-.814-1.393-2.193-2l-.75-.321c-2.171-.921-3.607-2.086-3.607-4.536,0-2.257,1.721-3.971,4.4-3.971a4.429,4.429,0,0,1,4.271,2.407l-2.343,1.5a2.045,2.045,0,0,0-1.936-1.286,1.305,1.305,0,0,0-1.436,1.286c0,.9.557,1.264,1.85,1.829l.75.321c2.557,1.093,3.993,2.214,3.993,4.729,0,2.7-2.129,4.186-4.979,4.186a5.771,5.771,0,0,1-5.479-3.071Z" transform="translate(0 -32)" fill="#95995c"/>
</svg>
