<svg xmlns="http://www.w3.org/2000/svg" width="33" height="33" viewBox="0 0 33 33">
  <path id="square-web-awesome-stroke" d="M4.571,34.286a2.283,2.283,0,0,0-2.286,2.286V59.429a2.283,2.283,0,0,0,2.286,2.286H27.429a2.283,2.283,0,0,0,2.286-2.286V36.571a2.283,2.283,0,0,0-2.286-2.286ZM0,36.571A4.576,4.576,0,0,1,4.571,32H27.429A4.576,4.576,0,0,1,32,36.571V59.429A4.576,4.576,0,0,1,27.429,64H4.571A4.576,4.576,0,0,1,0,59.429ZM16.786,42.4l3.786,3.314,3.729-.743A1.737,1.737,0,0,1,24,44a1.714,1.714,0,1,1,1.771,1.714L21.75,54.65A2.29,2.29,0,0,1,19.664,56H12.336a2.29,2.29,0,0,1-2.086-1.35L6.229,45.714A1.712,1.712,0,1,1,7.7,44.971l3.729.743L15.221,42.4a1.861,1.861,0,1,1,1.564,0Z" transform="translate(0.5 -31.5)" fill="#95995c" stroke="rgba(0,0,0,0)" stroke-width="1"/>
</svg>
