<svg xmlns="http://www.w3.org/2000/svg" width="32" height="32" viewBox="0 0 32 32">
  <path id="symfony" d="M24,8A16,16,0,1,0,40,24,16,16,0,0,0,24,8Zm8.628,9.261a1.126,1.126,0,0,1-1.275-1.088c-.017-.592.431-.867.421-1.216-.015-.423-.655-.44-.83-.43-2.566.083-3.135,3.677-3.8,7.345a4.3,4.3,0,0,0,2.912-.4c.774-.5-.215-1.014-.092-1.585a1.046,1.046,0,0,1,2.065.342c-.023,1.152-1.672,2.7-5.006,2.3-.694,3.84-1.184,7.419-3.755,10.434a6.419,6.419,0,0,1-4.618,2.6c-1.59.055-2.645-.794-2.683-1.925a1.69,1.69,0,0,1,1.568-1.715c1.412-.048,1.943,1.656.96,2.194-.78.626.007.814.132.81a2.489,2.489,0,0,0,1.431-.581c1.548-1.29,2.145-3.539,2.926-7.635a40.523,40.523,0,0,1,1.176-5.29c-1.092-.823-1.747-1.842-3.216-2.24a1.75,1.75,0,0,0-2.052.505,1.487,1.487,0,0,0,.153,1.981l.815.9c1,1.157,1.548,2.056,1.342,3.266-.326,1.931-2.627,3.413-5.347,2.577-2.323-.717-2.755-2.359-2.476-3.266.485-1.558,2.733-.756,2.234.877a8.028,8.028,0,0,1-.405.843c-.294.953,2.7,1.832,3.29-.09.288-.937-.342-1.4-1.435-2.571a3.385,3.385,0,0,1,.19-5.14c3.407-2.539,6.485,1.13,7.134,1.665,2.4-7.032,6.486-6.8,6.608-6.808,1.623-.052,2.851.683,2.892,1.848a1.381,1.381,0,0,1-1.259,1.492Z" transform="translate(-8 -8)" fill="#95995c"/>
</svg>
